{
    "asset" : {
        "generator" : "Khronos glTF Blender I/O v1.5.17",
        "version" : "2.0"
    },
    "scene" : 0,
    "scenes" : [
        {
            "name" : "Scene",
            "nodes" : [
                0,
                1,
                2,
                3,
                4,
                5,
                6,
                7,
                8
            ]
        }
    ],
    "nodes" : [
        {
            "mesh" : 0,
            "name" : "Cube"
        },
        {
            "name" : "Empty",
            "rotation" : [
                0.7071068286895752,
                0,
                0,
                0.7071067094802856
            ],
            "translation" : [
                1.2739144563674927,
                1.4740451574325562,
                0
            ]
        },
        {
            "name" : "Empty.001",
            "rotation" : [
                0.5000001192092896,
                0.5,
                -0.5000000596046448,
                0.5
            ],
            "translation" : [
                -0.026085615158081055,
                -0.25305044651031494,
                0
            ]
        },
        {
            "name" : "Empty.002",
            "rotation" : [
                0.7071068286895752,
                0,
                0,
                0.7071067094802856
            ],
            "translation" : [
                -1.213666319847107,
                1.4740451574325562,
                0
            ]
        },
        {
            "mesh" : 1,
            "name" : "Circle",
            "translation" : [
                0.8399999737739563,
                -0.6499999761581421,
                1.350000023841858
            ]
        },
        {
            "mesh" : 2,
            "name" : "Circle.001",
            "translation" : [
                0.8399999737739563,
                -0.6499999761581421,
                1.350000023841858
            ]
        },
        {
            "mesh" : 3,
            "name" : "Circle.002",
            "scale" : [
                -1,
                1,
                1
            ],
            "translation" : [
                0.8399999737739563,
                -0.6499999761581421,
                1.350000023841858
            ]
        },
        {
            "mesh" : 4,
            "name" : "Circle.003",
            "translation" : [
                -0.8399999737739563,
                -0.6499999761581421,
                1.350000023841858
            ]
        },
        {
            "mesh" : 5,
            "name" : "Circle.004",
            "scale" : [
                -1,
                1,
                1
            ],
            "translation" : [
                -0.8399999737739563,
                -0.6499999761581421,
                1.350000023841858
            ]
        }
    ],
    "materials" : [
        {
            "doubleSided" : true,
            "name" : "Material",
            "pbrMetallicRoughness" : {
                "baseColorFactor" : [
                    0.800000011920929,
                    0.800000011920929,
                    0.800000011920929,
                    1
                ],
                "metallicFactor" : 0,
                "roughnessFactor" : 0.4000000059604645
            }
        }
    ],
    "meshes" : [
        {
            "name" : "Cube",
            "primitives" : [
                {
                    "attributes" : {
                        "POSITION" : 0,
                        "NORMAL" : 1,
                        "TEXCOORD_0" : 2
                    },
                    "indices" : 3,
                    "material" : 0
                }
            ]
        },
        {
            "name" : "Circle",
            "primitives" : [
                {
                    "attributes" : {
                        "POSITION" : 4,
                        "NORMAL" : 5,
                        "TEXCOORD_0" : 6
                    },
                    "indices" : 7
                }
            ]
        },
        {
            "name" : "Circle.002",
            "primitives" : [
                {
                    "attributes" : {
                        "POSITION" : 8,
                        "NORMAL" : 9,
                        "TEXCOORD_0" : 10
                    },
                    "indices" : 11
                }
            ]
        },
        {
            "name" : "Circle.003",
            "primitives" : [
                {
                    "attributes" : {
                        "POSITION" : 12,
                        "NORMAL" : 13,
                        "TEXCOORD_0" : 14
                    },
                    "indices" : 7
                }
            ]
        },
        {
            "name" : "Circle.004",
            "primitives" : [
                {
                    "attributes" : {
                        "POSITION" : 15,
                        "NORMAL" : 16,
                        "TEXCOORD_0" : 17
                    },
                    "indices" : 7
                }
            ]
        },
        {
            "name" : "Circle.005",
            "primitives" : [
                {
                    "attributes" : {
                        "POSITION" : 18,
                        "NORMAL" : 19,
                        "TEXCOORD_0" : 20
                    },
                    "indices" : 11
                }
            ]
        }
    ],
    "accessors" : [
        {
            "bufferView" : 0,
            "componentType" : 5126,
            "count" : 509,
            "max" : [
                0.9850494861602783,
                0.5849524736404419,
                2.166884422302246
            ],
            "min" : [
                0,
                -0.6997975707054138,
                -2.1012561321258545
            ],
            "type" : "VEC3"
        },
        {
            "bufferView" : 1,
            "componentType" : 5126,
            "count" : 509,
            "type" : "VEC3"
        },
        {
            "bufferView" : 2,
            "componentType" : 5126,
            "count" : 509,
            "type" : "VEC2"
        },
        {
            "bufferView" : 3,
            "componentType" : 5123,
            "count" : 2391,
            "type" : "SCALAR"
        },
        {
            "bufferView" : 4,
            "componentType" : 5126,
            "count" : 80,
            "max" : [
                0.10999999940395355,
                0.3500000238418579,
                0.3500000238418579
            ],
            "min" : [
                -8.940696716308594e-08,
                -0.34999996423721313,
                -0.34999996423721313
            ],
            "type" : "VEC3"
        },
        {
            "bufferView" : 5,
            "componentType" : 5126,
            "count" : 80,
            "type" : "VEC3"
        },
        {
            "bufferView" : 6,
            "componentType" : 5126,
            "count" : 80,
            "type" : "VEC2"
        },
        {
            "bufferView" : 7,
            "componentType" : 5123,
            "count" : 384,
            "type" : "SCALAR"
        },
        {
            "bufferView" : 8,
            "componentType" : 5126,
            "count" : 64,
            "max" : [
                0.10999996960163116,
                0.22050003707408905,
                0.22050002217292786
            ],
            "min" : [
                0.05999999865889549,
                -0.22049996256828308,
                -0.22049997746944427
            ],
            "type" : "VEC3"
        },
        {
            "bufferView" : 9,
            "componentType" : 5126,
            "count" : 64,
            "type" : "VEC3"
        },
        {
            "bufferView" : 10,
            "componentType" : 5126,
            "count" : 64,
            "type" : "VEC2"
        },
        {
            "bufferView" : 11,
            "componentType" : 5123,
            "count" : 330,
            "type" : "SCALAR"
        },
        {
            "bufferView" : 12,
            "componentType" : 5126,
            "count" : 80,
            "max" : [
                0.10999999940395355,
                0.3500000238418579,
                0.3500000238418579
            ],
            "min" : [
                -8.940696716308594e-08,
                -0.34999996423721313,
                -0.34999996423721313
            ],
            "type" : "VEC3"
        },
        {
            "bufferView" : 13,
            "componentType" : 5126,
            "count" : 80,
            "type" : "VEC3"
        },
        {
            "bufferView" : 14,
            "componentType" : 5126,
            "count" : 80,
            "type" : "VEC2"
        },
        {
            "bufferView" : 15,
            "componentType" : 5126,
            "count" : 80,
            "max" : [
                0.10999999940395355,
                0.3500000238418579,
                0.3500000238418579
            ],
            "min" : [
                -8.940696716308594e-08,
                -0.34999996423721313,
                -0.34999996423721313
            ],
            "type" : "VEC3"
        },
        {
            "bufferView" : 16,
            "componentType" : 5126,
            "count" : 80,
            "type" : "VEC3"
        },
        {
            "bufferView" : 17,
            "componentType" : 5126,
            "count" : 80,
            "type" : "VEC2"
        },
        {
            "bufferView" : 18,
            "componentType" : 5126,
            "count" : 64,
            "max" : [
                0.10999996960163116,
                0.22050003707408905,
                0.22050002217292786
            ],
            "min" : [
                0.05999999865889549,
                -0.22049996256828308,
                -0.22049997746944427
            ],
            "type" : "VEC3"
        },
        {
            "bufferView" : 19,
            "componentType" : 5126,
            "count" : 64,
            "type" : "VEC3"
        },
        {
            "bufferView" : 20,
            "componentType" : 5126,
            "count" : 64,
            "type" : "VEC2"
        }
    ],
    "bufferViews" : [
        {
            "buffer" : 0,
            "byteLength" : 6108,
            "byteOffset" : 0
        },
        {
            "buffer" : 0,
            "byteLength" : 6108,
            "byteOffset" : 6108
        },
        {
            "buffer" : 0,
            "byteLength" : 4072,
            "byteOffset" : 12216
        },
        {
            "buffer" : 0,
            "byteLength" : 4782,
            "byteOffset" : 16288
        },
        {
            "buffer" : 0,
            "byteLength" : 960,
            "byteOffset" : 21072
        },
        {
            "buffer" : 0,
            "byteLength" : 960,
            "byteOffset" : 22032
        },
        {
            "buffer" : 0,
            "byteLength" : 640,
            "byteOffset" : 22992
        },
        {
            "buffer" : 0,
            "byteLength" : 768,
            "byteOffset" : 23632
        },
        {
            "buffer" : 0,
            "byteLength" : 768,
            "byteOffset" : 24400
        },
        {
            "buffer" : 0,
            "byteLength" : 768,
            "byteOffset" : 25168
        },
        {
            "buffer" : 0,
            "byteLength" : 512,
            "byteOffset" : 25936
        },
        {
            "buffer" : 0,
            "byteLength" : 660,
            "byteOffset" : 26448
        },
        {
            "buffer" : 0,
            "byteLength" : 960,
            "byteOffset" : 27108
        },
        {
            "buffer" : 0,
            "byteLength" : 960,
            "byteOffset" : 28068
        },
        {
            "buffer" : 0,
            "byteLength" : 640,
            "byteOffset" : 29028
        },
        {
            "buffer" : 0,
            "byteLength" : 960,
            "byteOffset" : 29668
        },
        {
            "buffer" : 0,
            "byteLength" : 960,
            "byteOffset" : 30628
        },
        {
            "buffer" : 0,
            "byteLength" : 640,
            "byteOffset" : 31588
        },
        {
            "buffer" : 0,
            "byteLength" : 768,
            "byteOffset" : 32228
        },
        {
            "buffer" : 0,
            "byteLength" : 768,
            "byteOffset" : 32996
        },
        {
            "buffer" : 0,
            "byteLength" : 512,
            "byteOffset" : 33764
        }
    ],
    "buffers" : [
        {
            "byteLength" : 34276,
            "uri" : "data:application/octet-stream;base64,"
        }
    ]
}
